<svg xmlns="http://www.w3.org/2000/svg" viewBox="0 0 64 64" aria-hidden="true">
  <defs>
    <linearGradient id="cc" x1="0%" y1="0%" x2="100%" y2="100%">
      <stop offset="0%" stop-color="#17B3FF"/>
      <stop offset="100%" stop-color="#0689D1"/>
    </linearGradient>
  </defs>

  <!-- Marca estilo Compuchat simplificada -->
  <path d="M32 5c-14.9 0-27 12.1-27 27 0 8.6 4.1 16.7 11 21.8L13 61l9-3.1c3.1 1.4 6.6 2.1 10 2.1 14.9 0 27-12.1 27-27S46.9 5 32 5zm0 49c-3 0-6-.7-8.6-2L22 51l-3.6 1.2 1.3-3.4-1.2-1c-5.1-4-8-9.8-8-15.8 0-11.8 9.7-21.5 21.5-21.5S53.5 20.2 53.5 32 43.8 54 32 54z" fill="url(#cc)"/>
  <path d="M33.8 18 20.6 36.4h8l-1.8 9.6L43.4 27h-8.3L33.8 18z" fill="#0A0A0F"/>
</svg>
