<?xml version="1.0" standalone="no"?>
<!DOCTYPE svg PUBLIC "-//W3C//DTD SVG 20010904//EN"
 "http://www.w3.org/TR/2001/REC-SVG-20010904/DTD/svg10.dtd">
<svg version="1.0" xmlns="http://www.w3.org/2000/svg"
 width="192.000000pt" height="192.000000pt" viewBox="0 0 192.000000 192.000000"
 preserveAspectRatio="xMidYMid meet">

<g transform="translate(0.000000,192.000000) scale(0.100000,-0.100000)"
fill="#000000" stroke="none">
<path d="M915 1559 c-38 -5 -76 -10 -82 -11 -7 -1 -13 -4 -13 -7 0 -4 -23 -15
-52 -26 -69 -27 -165 -121 -203 -200 -16 -33 -29 -63 -30 -67 -1 -16 -15 -19
-15 -3 0 37 -11 6 -16 -45 -3 -29 -7 -57 -10 -61 -2 -4 0 -38 6 -74 11 -72 52
-162 96 -215 31 -36 32 -53 13 -194 -6 -43 -8 -80 -6 -83 3 -2 54 20 114 50
l110 55 109 -5 c126 -6 206 9 289 57 62 36 154 130 185 189 l22 43 -23 -16
c-14 -9 -44 -16 -72 -16 -42 0 -53 -5 -86 -38 -38 -37 -100 -86 -111 -88 -3 0
-30 -8 -61 -18 -55 -16 -212 -20 -203 -5 10 17 -49 15 -71 -3 -25 -19 -36 -46
-13 -32 7 4 8 3 4 -5 -6 -9 -11 -9 -22 0 -12 10 -13 9 -8 -5 5 -12 2 -15 -12
-9 -10 4 -15 2 -11 -3 3 -5 -3 -10 -14 -10 -16 0 -19 5 -14 21 4 11 7 28 8 37
1 9 4 15 8 13 7 -5 29 39 29 57 0 5 -7 8 -14 5 -11 -4 -13 -1 -9 11 3 9 3 14
-2 10 -4 -4 -18 3 -30 17 -13 13 -26 21 -31 17 -4 -4 -4 -2 -1 4 4 6 -7 33
-24 59 -35 55 -42 104 -23 158 8 22 14 49 14 62 0 37 59 141 102 180 149 135
390 119 503 -34 l30 -41 74 0 c73 0 74 0 55 19 -10 10 -23 16 -28 13 -5 -3 -6
0 -2 6 4 6 -9 33 -29 59 -61 82 -169 153 -226 149 -15 -1 -26 1 -23 5 12 19
-90 30 -181 18z m-268 -931 c-3 -8 -6 -5 -6 6 -1 11 2 17 5 13 3 -3 4 -12 1
-19z"/>
<path d="M631 1094 c0 -11 3 -14 6 -6 3 7 2 16 -1 19 -3 4 -6 -2 -5 -13z"/>
</g>
</svg>
